<svg xmlns="http://www.w3.org/2000/svg" width="1440" height="900"><path d="M781,501L798,602L837,514Z" fill="#20aeff" stroke="#20aeff" stroke-width="1.51"/><path d="M781,501L710,603L798,602Z" fill="#21aeff" stroke="#21aeff" stroke-width="1.51"/><path d="M798,602L884,610L837,514Z" fill="#21b3ff" stroke="#21b3ff" stroke-width="1.51"/><path d="M816,666L884,610L798,602Z" fill="#20b7ff" stroke="#20b7ff" stroke-width="1.51"/><path d="M710,603L816,666L798,602Z" fill="#20b3ff" stroke="#20b3ff" stroke-width="1.51"/><path d="M781,501L689,484L710,603Z" fill="#20a9ff" stroke="#20a9ff" stroke-width="1.51"/><path d="M837,514L848,418L781,501Z" fill="#21aaff" stroke="#21aaff" stroke-width="1.51"/><path d="M781,501L728,366L689,484Z" fill="#1fa2ff" stroke="#1fa2ff" stroke-width="1.51"/><path d="M951,470L848,418L837,514Z" fill="#21acff" stroke="#21acff" stroke-width="1.51"/><path d="M884,610L948,583L837,514Z" fill="#20b5ff" stroke="#20b5ff" stroke-width="1.51"/><path d="M900,693L948,583L884,610Z" fill="#1fbbff" stroke="#1fbbff" stroke-width="1.51"/><path d="M948,583L951,470L837,514Z" fill="#21b2ff" stroke="#21b2ff" stroke-width="1.51"/><path d="M816,666L900,693L884,610Z" fill="#1ebbff" stroke="#1ebbff" stroke-width="1.51"/><path d="M710,603L691,702L816,666Z" fill="#20b4ff" stroke="#20b4ff" stroke-width="1.51"/><path d="M816,666L860,797L900,693Z" fill="#1cc0ff" stroke="#1cc0ff" stroke-width="1.51"/><path d="M556,654L691,702L710,603Z" fill="#24b0ff" stroke="#24b0ff" stroke-width="1.51"/><path d="M689,484L592,568L710,603Z" fill="#23a8ff" stroke="#23a8ff" stroke-width="1.51"/><path d="M728,366L644,443L689,484Z" fill="#21a0ff" stroke="#21a0ff" stroke-width="1.51"/><path d="M848,418L728,366L781,501Z" fill="#21a4ff" stroke="#21a4ff" stroke-width="1.51"/><path d="M585,546L592,568L689,484Z" fill="#24a5ff" stroke="#24a5ff" stroke-width="1.51"/><path d="M644,443L585,546L689,484Z" fill="#23a2ff" stroke="#23a2ff" stroke-width="1.51"/><path d="M691,702L711,755L816,666Z" fill="#20b8ff" stroke="#20b8ff" stroke-width="1.51"/><path d="M589,828L711,755L691,702Z" fill="#28baff" stroke="#28baff" stroke-width="1.51"/><path d="M848,418L846,281L728,366Z" fill="#25a1ff" stroke="#25a1ff" stroke-width="1.51"/><path d="M951,470L963,384L848,418Z" fill="#22abff" stroke="#22abff" stroke-width="1.51"/><path d="M1032,399L963,384L951,470Z" fill="#23aeff" stroke="#23aeff" stroke-width="1.51"/><path d="M900,693L971,710L948,583Z" fill="#1dc0ff" stroke="#1dc0ff" stroke-width="1.51"/><path d="M948,583L1037,483L951,470Z" fill="#20b5ff" stroke="#20b5ff" stroke-width="1.51"/><path d="M928,831L971,710L900,693Z" fill="#19c7ff" stroke="#19c7ff" stroke-width="1.51"/><path d="M1093,626L1037,483L948,583Z" fill="#1ebcff" stroke="#1ebcff" stroke-width="1.51"/><path d="M711,755L860,797L816,666Z" fill="#1dbeff" stroke="#1dbeff" stroke-width="1.51"/><path d="M592,568L556,654L710,603Z" fill="#25acff" stroke="#25acff" stroke-width="1.51"/><path d="M450,601L556,654L592,568Z" fill="#28a8ff" stroke="#28a8ff" stroke-width="1.51"/><path d="M963,384L846,281L848,418Z" fill="#26a6ff" stroke="#26a6ff" stroke-width="1.51"/><path d="M1037,483L1032,399L951,470Z" fill="#21b2ff" stroke="#21b2ff" stroke-width="1.51"/><path d="M963,384L998,288L846,281Z" fill="#29a6ff" stroke="#29a6ff" stroke-width="1.51"/><path d="M846,281L756,275L728,366Z" fill="#279dff" stroke="#279dff" stroke-width="1.51"/><path d="M728,366L595,325L644,443Z" fill="#259cff" stroke="#259cff" stroke-width="1.51"/><path d="M971,710L1038,712L948,583Z" fill="#1bc3ff" stroke="#1bc3ff" stroke-width="1.51"/><path d="M1026,805L1038,712L971,710Z" fill="#15cbff" stroke="#15cbff" stroke-width="1.51"/><path d="M711,755L752,849L860,797Z" fill="#38c1fc" stroke="#38c1fc" stroke-width="1.51"/><path d="M860,797L928,831L900,693Z" fill="#29c7fe" stroke="#29c7fe" stroke-width="1.51"/><path d="M669,874L752,849L711,755Z" fill="#43bff9" stroke="#43bff9" stroke-width="1.51"/><path d="M1038,712L1093,626L948,583Z" fill="#1bc3ff" stroke="#1bc3ff" stroke-width="1.51"/><path d="M1037,483L1156,483L1032,399Z" fill="#20b6ff" stroke="#20b6ff" stroke-width="1.51"/><path d="M637,253L595,325L728,366Z" fill="#2798ff" stroke="#2798ff" stroke-width="1.51"/><path d="M644,443L480,442L585,546Z" fill="#259fff" stroke="#259fff" stroke-width="1.51"/><path d="M585,546L450,601L592,568Z" fill="#28a5ff" stroke="#28a5ff" stroke-width="1.51"/><path d="M841,897L928,831L860,797Z" fill="#46c9f8" stroke="#46c9f8" stroke-width="1.51"/><path d="M595,325L528,367L644,443Z" fill="#2799ff" stroke="#2799ff" stroke-width="1.51"/><path d="M1032,399L998,288L963,384Z" fill="#26acff" stroke="#26acff" stroke-width="1.51"/><path d="M759,210L637,253L756,275Z" fill="#2897ff" stroke="#2897ff" stroke-width="1.51"/><path d="M528,367L480,442L644,443Z" fill="#269aff" stroke="#269aff" stroke-width="1.51"/><path d="M501,218L447,343L528,367Z" fill="#2b92ff" stroke="#2b92ff" stroke-width="1.51"/><path d="M756,275L637,253L728,366Z" fill="#2799ff" stroke="#2799ff" stroke-width="1.51"/><path d="M759,210L756,275L846,281Z" fill="#299bff" stroke="#299bff" stroke-width="1.51"/><path d="M480,442L467,472L585,546Z" fill="#279dff" stroke="#279dff" stroke-width="1.51"/><path d="M928,831L1026,805L971,710Z" fill="#2bccfd" stroke="#2bccfd" stroke-width="1.51"/><path d="M1038,712L1171,689L1093,626Z" fill="#16caff" stroke="#16caff" stroke-width="1.51"/><path d="M908,179L759,210L846,281Z" fill="#2b9cff" stroke="#2b9cff" stroke-width="1.51"/><path d="M556,654L589,828L691,702Z" fill="#25b5ff" stroke="#25b5ff" stroke-width="1.51"/><path d="M470,695L589,828L556,654Z" fill="#28b2ff" stroke="#28b2ff" stroke-width="1.51"/><path d="M589,828L669,874L711,755Z" fill="#42bdfa" stroke="#42bdfa" stroke-width="1.51"/><path d="M752,849L841,897L860,797Z" fill="#48c7f8" stroke="#48c7f8" stroke-width="1.51"/><path d="M733,925L841,897L752,849Z" fill="#55c7f4" stroke="#55c7f4" stroke-width="1.51"/><path d="M928,831L986,912L1026,805Z" fill="#47d0f8" stroke="#47d0f8" stroke-width="1.51"/><path d="M467,472L450,601L585,546Z" fill="#28a1ff" stroke="#28a1ff" stroke-width="1.51"/><path d="M637,253L624,243L595,325Z" fill="#2994ff" stroke="#2994ff" stroke-width="1.51"/><path d="M626,138L624,243L637,253Z" fill="#2b91ff" stroke="#2b91ff" stroke-width="1.51"/><path d="M998,288L908,179L846,281Z" fill="#2ba2ff" stroke="#2ba2ff" stroke-width="1.51"/><path d="M1032,399L1034,278L998,288Z" fill="#29acff" stroke="#29acff" stroke-width="1.51"/><path d="M1174,311L1034,278L1032,399Z" fill="#28afff" stroke="#28afff" stroke-width="1.51"/><path d="M450,601L470,695L556,654Z" fill="#2aaaff" stroke="#2aaaff" stroke-width="1.51"/><path d="M1093,626L1156,483L1037,483Z" fill="#1ebeff" stroke="#1ebeff" stroke-width="1.51"/><path d="M1212,571L1156,483L1093,626Z" fill="#1bc3ff" stroke="#1bc3ff" stroke-width="1.51"/><path d="M669,874L733,925L752,849Z" fill="#53c3f5" stroke="#53c3f5" stroke-width="1.51"/><path d="M697,994L733,925L669,874Z" fill="#60c5f2" stroke="#60c5f2" stroke-width="1.51"/><path d="M965,182L908,179L998,288Z" fill="#2da2ff" stroke="#2da2ff" stroke-width="1.51"/><path d="M1132,826L1171,689L1038,712Z" fill="#0ed0ff" stroke="#0ed0ff" stroke-width="1.51"/><path d="M467,472L409,458L450,601Z" fill="#299dff" stroke="#299dff" stroke-width="1.51"/><path d="M333,745L435,807L470,695Z" fill="#2dafff" stroke="#2dafff" stroke-width="1.51"/><path d="M480,442L409,458L467,472Z" fill="#2799ff" stroke="#2799ff" stroke-width="1.51"/><path d="M379,405L409,458L480,442Z" fill="#2896ff" stroke="#2896ff" stroke-width="1.51"/><path d="M447,343L480,442L528,367Z" fill="#2896ff" stroke="#2896ff" stroke-width="1.51"/><path d="M1034,278L965,182L998,288Z" fill="#2ca6ff" stroke="#2ca6ff" stroke-width="1.51"/><path d="M1026,805L1132,826L1038,712Z" fill="#28d1fd" stroke="#28d1fd" stroke-width="1.51"/><path d="M841,897L986,912L928,831Z" fill="#51cef5" stroke="#51cef5" stroke-width="1.51"/><path d="M998,1009L986,912L841,897Z" fill="#5fd4f0" stroke="#5fd4f0" stroke-width="1.51"/><path d="M501,218L528,367L595,325Z" fill="#2a94ff" stroke="#2a94ff" stroke-width="1.51"/><path d="M1171,689L1212,571L1093,626Z" fill="#17c9ff" stroke="#17c9ff" stroke-width="1.51"/><path d="M1156,483L1174,311L1032,399Z" fill="#23b5ff" stroke="#23b5ff" stroke-width="1.51"/><path d="M589,828L601,922L669,874Z" fill="#53bff6" stroke="#53bff6" stroke-width="1.51"/><path d="M510,864L601,922L589,828Z" fill="#54bdf6" stroke="#54bdf6" stroke-width="1.51"/><path d="M435,807L589,828L470,695Z" fill="#36b4fd" stroke="#36b4fd" stroke-width="1.51"/><path d="M435,807L510,864L589,828Z" fill="#4ab8f9" stroke="#4ab8f9" stroke-width="1.51"/><path d="M1252,502L1213,441L1156,483Z" fill="#2cbffe" stroke="#2cbffe" stroke-width="1.51"/><path d="M1034,278L1067,210L965,182Z" fill="#2da6ff" stroke="#2da6ff" stroke-width="1.51"/><path d="M1303,561L1252,502L1212,571Z" fill="#3ac7fb" stroke="#3ac7fb" stroke-width="1.51"/><path d="M1060,917L1132,826L1026,805Z" fill="#45d5f8" stroke="#45d5f8" stroke-width="1.51"/><path d="M1174,311L1067,210L1034,278Z" fill="#2cacff" stroke="#2cacff" stroke-width="1.51"/><path d="M447,343L379,405L480,442Z" fill="#2995ff" stroke="#2995ff" stroke-width="1.51"/><path d="M409,458L327,617L450,601Z" fill="#2b9fff" stroke="#2b9fff" stroke-width="1.51"/><path d="M1213,441L1174,311L1156,483Z" fill="#25baff" stroke="#25baff" stroke-width="1.51"/><path d="M327,617L470,695L450,601Z" fill="#2da6ff" stroke="#2da6ff" stroke-width="1.51"/><path d="M624,243L501,218L595,325Z" fill="#2a92ff" stroke="#2a92ff" stroke-width="1.51"/><path d="M447,343L392,279L379,405Z" fill="#2b91ff" stroke="#2b91ff" stroke-width="1.51"/><path d="M529,158L501,218L624,243Z" fill="#2c8eff" stroke="#2c8eff" stroke-width="1.51"/><path d="M626,138L637,253L759,210Z" fill="#2a93ff" stroke="#2a93ff" stroke-width="1.51"/><path d="M830,54L759,210L908,179Z" fill="#2e98ff" stroke="#2e98ff" stroke-width="1.51"/><path d="M746,23L626,138L759,210Z" fill="#2f8eff" stroke="#2f8eff" stroke-width="1.51"/><path d="M986,912L1060,917L1026,805Z" fill="#4fd4f5" stroke="#4fd4f5" stroke-width="1.51"/><path d="M998,1009L1060,917L986,912Z" fill="#5fd8f0" stroke="#5fd8f0" stroke-width="1.51"/><path d="M1275,292L1179,225L1174,311Z" fill="#37b3fd" stroke="#37b3fd" stroke-width="1.51"/><path d="M1212,571L1252,502L1156,483Z" fill="#2bc2fe" stroke="#2bc2fe" stroke-width="1.51"/><path d="M1259,665L1212,571L1171,689Z" fill="#29cdfd" stroke="#29cdfd" stroke-width="1.51"/><path d="M733,925L829,1042L841,897Z" fill="#64ccf0" stroke="#64ccf0" stroke-width="1.51"/><path d="M601,922L697,994L669,874Z" fill="#60c4f2" stroke="#60c4f2" stroke-width="1.51"/><path d="M726,1027L697,994L710,1076Z" fill="#74ccea" stroke="#74ccea" stroke-width="1.51"/><path d="M1309,827L1259,665L1171,689Z" fill="#31d6fb" stroke="#31d6fb" stroke-width="1.51"/><path d="M626,138L529,158L624,243Z" fill="#2c8fff" stroke="#2c8fff" stroke-width="1.51"/><path d="M413,238L392,279L447,343Z" fill="#2c8eff" stroke="#2c8eff" stroke-width="1.51"/><path d="M279,438L327,617L409,458Z" fill="#2b98ff" stroke="#2b98ff" stroke-width="1.51"/><path d="M697,994L726,1027L733,925Z" fill="#6ac9ed" stroke="#6ac9ed" stroke-width="1.51"/><path d="M594,1039L697,994L601,922Z" fill="#6cc6ee" stroke="#6cc6ee" stroke-width="1.51"/><path d="M379,405L279,438L409,458Z" fill="#2a94ff" stroke="#2a94ff" stroke-width="1.51"/><path d="M413,238L447,343L501,218Z" fill="#2c8eff" stroke="#2c8eff" stroke-width="1.51"/><path d="M726,1027L829,1042L733,925Z" fill="#6dcdec" stroke="#6dcdec" stroke-width="1.51"/><path d="M413,116L413,238L501,218Z" fill="#2d89ff" stroke="#2d89ff" stroke-width="1.51"/><path d="M958,60L830,54L908,179Z" fill="#3896ff" stroke="#3896ff" stroke-width="1.51"/><path d="M626,138L594,71L529,158Z" fill="#318aff" stroke="#318aff" stroke-width="1.51"/><path d="M958,60L908,179L965,182Z" fill="#319dff" stroke="#319dff" stroke-width="1.51"/><path d="M830,54L809,53L759,210Z" fill="#3491ff" stroke="#3491ff" stroke-width="1.51"/><path d="M1174,311L1179,225L1067,210Z" fill="#2daeff" stroke="#2daeff" stroke-width="1.51"/><path d="M1115,84L958,60L965,182Z" fill="#389eff" stroke="#389eff" stroke-width="1.51"/><path d="M1275,292L1174,311L1213,441Z" fill="#37b8fd" stroke="#37b8fd" stroke-width="1.51"/><path d="M1060,917L1156,921L1132,826Z" fill="#50daf5" stroke="#50daf5" stroke-width="1.51"/><path d="M1132,826L1309,827L1171,689Z" fill="#2fd8fc" stroke="#2fd8fc" stroke-width="1.51"/><path d="M829,1042L998,1009L841,897Z" fill="#69d3ed" stroke="#69d3ed" stroke-width="1.51"/><path d="M1259,665L1303,561L1212,571Z" fill="#39cbfb" stroke="#39cbfb" stroke-width="1.51"/><path d="M1252,502L1301,420L1213,441Z" fill="#3bbffb" stroke="#3bbffb" stroke-width="1.51"/><path d="M435,807L341,882L510,864Z" fill="#51b6f8" stroke="#51b6f8" stroke-width="1.51"/><path d="M452,1038L594,1039L601,922Z" fill="#70c4ec" stroke="#70c4ec" stroke-width="1.51"/><path d="M327,617L333,745L470,695Z" fill="#2ea9ff" stroke="#2ea9ff" stroke-width="1.51"/><path d="M1170,974L1156,921L1060,917Z" fill="#5cdef1" stroke="#5cdef1" stroke-width="1.51"/><path d="M1259,665L1345,573L1303,561Z" fill="#44cdf9" stroke="#44cdf9" stroke-width="1.51"/><path d="M868,-97L746,23L809,53Z" fill="#4386ff" stroke="#4386ff" stroke-width="1.51"/><path d="M980,27L958,60L1115,84Z" fill="#3f98ff" stroke="#3f98ff" stroke-width="1.51"/><path d="M1381,465L1301,420L1252,502Z" fill="#48c2f8" stroke="#48c2f8" stroke-width="1.51"/><path d="M333,745L356,819L435,807Z" fill="#3fb1fc" stroke="#3fb1fc" stroke-width="1.51"/><path d="M529,158L413,116L501,218Z" fill="#2d89ff" stroke="#2d89ff" stroke-width="1.51"/><path d="M746,23L594,71L626,138Z" fill="#3787ff" stroke="#3787ff" stroke-width="1.51"/><path d="M726,1027L774,1074L829,1042Z" fill="#75d0e8" stroke="#75d0e8" stroke-width="1.51"/><path d="M947,1128L1050,1032L998,1009Z" fill="#75dee7" stroke="#75dee7" stroke-width="1.51"/><path d="M710,1076L774,1074L726,1027Z" fill="#77cfe8" stroke="#77cfe8" stroke-width="1.51"/><path d="M809,53L746,23L759,210Z" fill="#358fff" stroke="#358fff" stroke-width="1.51"/><path d="M868,-97L809,53L830,54Z" fill="#4289ff" stroke="#4289ff" stroke-width="1.51"/><path d="M567,1073L594,1039L452,1038Z" fill="#79c6e9" stroke="#79c6e9" stroke-width="1.51"/><path d="M281,263L379,405L392,279Z" fill="#2c8dff" stroke="#2c8dff" stroke-width="1.51"/><path d="M281,263L279,438L379,405Z" fill="#2c8fff" stroke="#2c8fff" stroke-width="1.51"/><path d="M327,617L277,723L333,745Z" fill="#30a7ff" stroke="#30a7ff" stroke-width="1.51"/><path d="M594,1039L710,1076L697,994Z" fill="#75cbe9" stroke="#75cbe9" stroke-width="1.51"/><path d="M1115,84L965,182L1067,210Z" fill="#31a4ff" stroke="#31a4ff" stroke-width="1.51"/><path d="M1301,420L1275,292L1213,441Z" fill="#40bbfb" stroke="#40bbfb" stroke-width="1.51"/><path d="M594,71L499,98L529,158Z" fill="#3387ff" stroke="#3387ff" stroke-width="1.51"/><path d="M157,481L232,502L279,438Z" fill="#3190ff" stroke="#3190ff" stroke-width="1.51"/><path d="M413,116L499,98L469,19Z" fill="#3880ff" stroke="#3880ff" stroke-width="1.51"/><path d="M998,1009L1050,1032L1060,917Z" fill="#68dced" stroke="#68dced" stroke-width="1.51"/><path d="M947,1128L998,1009L829,1042Z" fill="#76dae8" stroke="#76dae8" stroke-width="1.51"/><path d="M1303,561L1381,465L1252,502Z" fill="#48c6f8" stroke="#48c6f8" stroke-width="1.51"/><path d="M1301,420L1407,411L1275,292Z" fill="#4fbef8" stroke="#4fbef8" stroke-width="1.51"/><path d="M1376,722L1345,573L1259,665Z" fill="#47d3f7" stroke="#47d3f7" stroke-width="1.51"/><path d="M232,623L277,723L327,617Z" fill="#30a3ff" stroke="#30a3ff" stroke-width="1.51"/><path d="M333,745L312,858L356,819Z" fill="#46b0fb" stroke="#46b0fb" stroke-width="1.51"/><path d="M1115,84L1067,210L1194,115Z" fill="#34a7ff" stroke="#34a7ff" stroke-width="1.51"/><path d="M958,60L917,-18L830,54Z" fill="#418fff" stroke="#418fff" stroke-width="1.51"/><path d="M1194,115L1067,210L1179,225Z" fill="#30abff" stroke="#30abff" stroke-width="1.51"/><path d="M1256,923L1309,827L1132,826Z" fill="#51def4" stroke="#51def4" stroke-width="1.51"/><path d="M1050,1032L1170,974L1060,917Z" fill="#65deee" stroke="#65deee" stroke-width="1.51"/><path d="M356,819L341,882L435,807Z" fill="#4eb3f9" stroke="#4eb3f9" stroke-width="1.51"/><path d="M312,858L341,882L356,819Z" fill="#54b3f8" stroke="#54b3f8" stroke-width="1.51"/><path d="M279,438L232,502L327,617Z" fill="#2d98ff" stroke="#2d98ff" stroke-width="1.51"/><path d="M281,263L392,279L309,217Z" fill="#2e89ff" stroke="#2e89ff" stroke-width="1.51"/><path d="M277,723L312,858L333,745Z" fill="#3badfd" stroke="#3badfd" stroke-width="1.51"/><path d="M232,502L232,623L327,617Z" fill="#2f9cff" stroke="#2f9cff" stroke-width="1.51"/><path d="M594,1039L567,1073L710,1076Z" fill="#79cae8" stroke="#79cae8" stroke-width="1.51"/><path d="M452,1038L601,922L510,864Z" fill="#65bff1" stroke="#65bff1" stroke-width="1.51"/><path d="M341,882L452,1038L510,864Z" fill="#64bbf2" stroke="#64bbf2" stroke-width="1.51"/><path d="M219,832L312,858L277,723Z" fill="#46adfc" stroke="#46adfc" stroke-width="1.51"/><path d="M868,-97L917,-18L994,-103Z" fill="#4c85ff" stroke="#4c85ff" stroke-width="1.51"/><path d="M980,27L917,-18L958,60Z" fill="#4391ff" stroke="#4391ff" stroke-width="1.51"/><path d="M1256,923L1132,826L1156,921Z" fill="#51def4" stroke="#51def4" stroke-width="1.51"/><path d="M499,98L413,116L529,158Z" fill="#3186ff" stroke="#3186ff" stroke-width="1.51"/><path d="M543,-15L499,98L594,71Z" fill="#3b80ff" stroke="#3b80ff" stroke-width="1.51"/><path d="M994,-103L917,-18L980,27Z" fill="#498cff" stroke="#498cff" stroke-width="1.51"/><path d="M1314,153L1194,115L1179,225Z" fill="#41aefd" stroke="#41aefd" stroke-width="1.51"/><path d="M1345,573L1381,465L1303,561Z" fill="#4ec9f6" stroke="#4ec9f6" stroke-width="1.51"/><path d="M1275,292L1314,153L1179,225Z" fill="#45b2fb" stroke="#45b2fb" stroke-width="1.51"/><path d="M1433,434L1381,465L1515,501Z" fill="#5fc8f1" stroke="#5fc8f1" stroke-width="1.51"/><path d="M1248,959L1256,923L1156,921Z" fill="#62e2ee" stroke="#62e2ee" stroke-width="1.51"/><path d="M774,1074L867,1137L829,1042Z" fill="#76d4e8" stroke="#76d4e8" stroke-width="1.51"/><path d="M1050,1032L1082,1083L1170,974Z" fill="#6fe3e9" stroke="#6fe3e9" stroke-width="1.51"/><path d="M710,1076L867,1137L774,1074Z" fill="#77d1e8" stroke="#77d1e8" stroke-width="1.51"/><path d="M567,1073L867,1137L710,1076Z" fill="#77cee8" stroke="#77cee8" stroke-width="1.51"/><path d="M309,217L392,279L413,238Z" fill="#2e8aff" stroke="#2e8aff" stroke-width="1.51"/><path d="M413,116L309,217L413,238Z" fill="#2e87ff" stroke="#2e87ff" stroke-width="1.51"/><path d="M746,23L699,-37L594,71Z" fill="#3e82ff" stroke="#3e82ff" stroke-width="1.51"/><path d="M742,-134L699,-37L746,23Z" fill="#457dff" stroke="#457dff" stroke-width="1.51"/><path d="M867,1137L947,1128L829,1042Z" fill="#76d7e8" stroke="#76d7e8" stroke-width="1.51"/><path d="M1170,974L1248,959L1156,921Z" fill="#61e2ee" stroke="#61e2ee" stroke-width="1.51"/><path d="M441,1090L452,1038L333,1086Z" fill="#7cc2e8" stroke="#7cc2e8" stroke-width="1.51"/><path d="M1352,840L1376,722L1309,827Z" fill="#55def3" stroke="#55def3" stroke-width="1.51"/><path d="M1309,827L1376,722L1259,665Z" fill="#42daf8" stroke="#42daf8" stroke-width="1.51"/><path d="M947,1128L1082,1083L1050,1032Z" fill="#74dfe7" stroke="#74dfe7" stroke-width="1.51"/><path d="M1256,923L1352,840L1309,827Z" fill="#5ee1f0" stroke="#5ee1f0" stroke-width="1.51"/><path d="M1206,1077L1248,959L1170,974Z" fill="#6de6e9" stroke="#6de6e9" stroke-width="1.51"/><path d="M238,114L202,260L309,217Z" fill="#3082ff" stroke="#3082ff" stroke-width="1.51"/><path d="M699,-37L543,-15L594,71Z" fill="#407eff" stroke="#407eff" stroke-width="1.51"/><path d="M1381,465L1407,411L1301,420Z" fill="#53c2f6" stroke="#53c2f6" stroke-width="1.51"/><path d="M1433,434L1407,411L1381,465Z" fill="#5ac4f3" stroke="#5ac4f3" stroke-width="1.51"/><path d="M699,-37L687,-64L543,-15Z" fill="#437aff" stroke="#437aff" stroke-width="1.51"/><path d="M742,-134L687,-64L699,-37Z" fill="#4779ff" stroke="#4779ff" stroke-width="1.51"/><path d="M1386,903L1352,840L1256,923Z" fill="#67e4ec" stroke="#67e4ec" stroke-width="1.51"/><path d="M543,-15L469,19L499,98Z" fill="#3c7dff" stroke="#3c7dff" stroke-width="1.51"/><path d="M1331,161L1314,153L1275,292Z" fill="#50b3f9" stroke="#50b3f9" stroke-width="1.51"/><path d="M1458,629L1381,465L1345,573Z" fill="#56cef4" stroke="#56cef4" stroke-width="1.51"/><path d="M281,1000L332,1014L341,882Z" fill="#6db9ef" stroke="#6db9ef" stroke-width="1.51"/><path d="M206,805L219,832L277,723Z" fill="#44aafd" stroke="#44aafd" stroke-width="1.51"/><path d="M206,805L277,723L122,742Z" fill="#3ca7ff" stroke="#3ca7ff" stroke-width="1.51"/><path d="M122,742L277,723L232,623Z" fill="#38a2ff" stroke="#38a2ff" stroke-width="1.51"/><path d="M232,502L134,558L232,623Z" fill="#3796ff" stroke="#3796ff" stroke-width="1.51"/><path d="M137,386L157,481L279,438Z" fill="#348bff" stroke="#348bff" stroke-width="1.51"/><path d="M452,1038L441,1090L567,1073Z" fill="#7bc5e8" stroke="#7bc5e8" stroke-width="1.51"/><path d="M567,1073L441,1090L867,1137Z" fill="#79cae8" stroke="#79cae8" stroke-width="1.51"/><path d="M332,1014L452,1038L341,882Z" fill="#6fbcee" stroke="#6fbcee" stroke-width="1.51"/><path d="M1331,161L1275,292L1399,257Z" fill="#54b6f7" stroke="#54b6f7" stroke-width="1.51"/><path d="M1081,-41L980,27L1115,84Z" fill="#4597ff" stroke="#4597ff" stroke-width="1.51"/><path d="M917,-18L868,-97L830,54Z" fill="#4688ff" stroke="#4688ff" stroke-width="1.51"/><path d="M1081,-41L1115,84L1136,-22Z" fill="#4899ff" stroke="#4899ff" stroke-width="1.51"/><path d="M1136,-22L1115,84L1194,115Z" fill="#41a0ff" stroke="#41a0ff" stroke-width="1.51"/><path d="M281,1000L341,882L312,858Z" fill="#63b5f3" stroke="#63b5f3" stroke-width="1.51"/><path d="M1270,33L1136,-22L1194,115Z" fill="#4aa1fe" stroke="#4aa1fe" stroke-width="1.51"/><path d="M1399,257L1275,292L1407,411Z" fill="#57bbf6" stroke="#57bbf6" stroke-width="1.51"/><path d="M1376,722L1458,629L1345,573Z" fill="#55d4f4" stroke="#55d4f4" stroke-width="1.51"/><path d="M1523,688L1458,629L1376,722Z" fill="#5ddbf0" stroke="#5ddbf0" stroke-width="1.51"/><path d="M1292,59L1194,115L1314,153Z" fill="#4faafb" stroke="#4faafb" stroke-width="1.51"/><path d="M281,263L202,260L279,438Z" fill="#2f89ff" stroke="#2f89ff" stroke-width="1.51"/><path d="M309,217L202,260L281,263Z" fill="#2e86ff" stroke="#2e86ff" stroke-width="1.51"/><path d="M238,114L309,217L413,116Z" fill="#2f82ff" stroke="#2f82ff" stroke-width="1.51"/><path d="M157,481L134,558L232,502Z" fill="#3790ff" stroke="#3790ff" stroke-width="1.51"/><path d="M112,561L134,558L100,508Z" fill="#3e8eff" stroke="#3e8eff" stroke-width="1.51"/><path d="M1082,1083L1206,1077L1170,974Z" fill="#71e7e8" stroke="#71e7e8" stroke-width="1.51"/><path d="M1248,959L1333,973L1256,923Z" fill="#6de6ea" stroke="#6de6ea" stroke-width="1.51"/><path d="M1310,1143L1206,1077L1082,1083Z" fill="#76e9e6" stroke="#76e9e6" stroke-width="1.51"/><path d="M1487,255L1399,257L1407,411Z" fill="#62bef2" stroke="#62bef2" stroke-width="1.51"/><path d="M1352,840L1485,805L1376,722Z" fill="#5de1f0" stroke="#5de1f0" stroke-width="1.51"/><path d="M1206,1077L1333,973L1248,959Z" fill="#74e8e7" stroke="#74e8e7" stroke-width="1.51"/><path d="M1118,-89L994,-103L1081,-41Z" fill="#508dff" stroke="#508dff" stroke-width="1.51"/><path d="M1081,-41L994,-103L980,27Z" fill="#4b8eff" stroke="#4b8eff" stroke-width="1.51"/><path d="M202,260L137,386L279,438Z" fill="#3388ff" stroke="#3388ff" stroke-width="1.51"/><path d="M1333,973L1386,903L1256,923Z" fill="#6fe7e9" stroke="#6fe7e9" stroke-width="1.51"/><path d="M687,-64L537,-117L543,-15Z" fill="#4675ff" stroke="#4675ff" stroke-width="1.51"/><path d="M391,-89L349,30L469,19Z" fill="#4174ff" stroke="#4174ff" stroke-width="1.51"/><path d="M868,-97L742,-134L746,23Z" fill="#487dff" stroke="#487dff" stroke-width="1.51"/><path d="M994,-103L742,-134L868,-97Z" fill="#4e7eff" stroke="#4e7eff" stroke-width="1.51"/><path d="M196,916L281,1000L312,858Z" fill="#66b5f3" stroke="#66b5f3" stroke-width="1.51"/><path d="M332,1014L333,1086L452,1038Z" fill="#7bc0e9" stroke="#7bc0e9" stroke-width="1.51"/><path d="M196,916L312,858L219,832Z" fill="#5bb0f7" stroke="#5bb0f7" stroke-width="1.51"/><path d="M134,558L122,742L232,623Z" fill="#3d9aff" stroke="#3d9aff" stroke-width="1.51"/><path d="M104,885L196,916L219,832Z" fill="#61acf6" stroke="#61acf6" stroke-width="1.51"/><path d="M100,508L134,558L157,481Z" fill="#3c8dff" stroke="#3c8dff" stroke-width="1.51"/><path d="M469,19L349,30L413,116Z" fill="#3a7cff" stroke="#3a7cff" stroke-width="1.51"/><path d="M421,-120L469,19L543,-15Z" fill="#4374ff" stroke="#4374ff" stroke-width="1.51"/><path d="M1402,68L1314,153L1331,161Z" fill="#5baff7" stroke="#5baff7" stroke-width="1.51"/><path d="M1402,68L1292,59L1314,153Z" fill="#5dabf8" stroke="#5dabf8" stroke-width="1.51"/><path d="M1136,-22L1118,-89L1081,-41Z" fill="#4e92ff" stroke="#4e92ff" stroke-width="1.51"/><path d="M1292,59L1270,33L1194,115Z" fill="#51a6fc" stroke="#51a6fc" stroke-width="1.51"/><path d="M40,433L100,508L157,481Z" fill="#3d87ff" stroke="#3d87ff" stroke-width="1.51"/><path d="M112,561L122,742L134,558Z" fill="#4096ff" stroke="#4096ff" stroke-width="1.51"/><path d="M98,815L122,742L39,746Z" fill="#4b9fff" stroke="#4b9fff" stroke-width="1.51"/><path d="M104,885L219,832L206,805Z" fill="#58a9f9" stroke="#58a9f9" stroke-width="1.51"/><path d="M441,1090L273,1140L867,1137Z" fill="#7ac7e8" stroke="#7ac7e8" stroke-width="1.51"/><path d="M281,1000L333,1086L332,1014Z" fill="#79bdea" stroke="#79bdea" stroke-width="1.51"/><path d="M273,1140L333,1086L199,1085Z" fill="#7dbce9" stroke="#7dbce9" stroke-width="1.51"/><path d="M202,260L79,256L137,386Z" fill="#3980ff" stroke="#3980ff" stroke-width="1.51"/><path d="M349,30L238,114L413,116Z" fill="#377cff" stroke="#377cff" stroke-width="1.51"/><path d="M1213,-68L1118,-89L1136,-22Z" fill="#5094ff" stroke="#5094ff" stroke-width="1.51"/><path d="M994,-103L1300,-133L742,-134Z" fill="#5285ff" stroke="#5285ff" stroke-width="1.51"/><path d="M161,-37L154,116L238,114Z" fill="#3f71ff" stroke="#3f71ff" stroke-width="1.51"/><path d="M742,-134L537,-117L687,-64Z" fill="#4973ff" stroke="#4973ff" stroke-width="1.51"/><path d="M1433,434L1487,255L1407,411Z" fill="#62c2f2" stroke="#62c2f2" stroke-width="1.51"/><path d="M1458,629L1515,501L1381,465Z" fill="#60cef1" stroke="#60cef1" stroke-width="1.51"/><path d="M1540,573L1515,501L1458,629Z" fill="#66d3ee" stroke="#66d3ee" stroke-width="1.51"/><path d="M1386,903L1485,805L1352,840Z" fill="#69e5eb" stroke="#69e5eb" stroke-width="1.51"/><path d="M1437,921L1485,805L1386,903Z" fill="#72e8e7" stroke="#72e8e7" stroke-width="1.51"/><path d="M1485,805L1523,688L1376,722Z" fill="#5de0f0" stroke="#5de0f0" stroke-width="1.51"/><path d="M1432,1007L1386,903L1333,973Z" fill="#7bebe4" stroke="#7bebe4" stroke-width="1.51"/><path d="M1432,1007L1437,921L1386,903Z" fill="#7cebe3" stroke="#7cebe3" stroke-width="1.51"/><path d="M1523,688L1540,573L1458,629Z" fill="#66d8ee" stroke="#66d8ee" stroke-width="1.51"/><path d="M1270,33L1213,-68L1136,-22Z" fill="#529afe" stroke="#529afe" stroke-width="1.51"/><path d="M1300,-133L1213,-68L1343,-115Z" fill="#6794fa" stroke="#6794fa" stroke-width="1.51"/><path d="M1292,59L1387,38L1270,33Z" fill="#5fa5f9" stroke="#5fa5f9" stroke-width="1.51"/><path d="M1399,257L1443,161L1331,161Z" fill="#5eb5f4" stroke="#5eb5f4" stroke-width="1.51"/><path d="M1575,314L1487,255L1433,434Z" fill="#6ac2ef" stroke="#6ac2ef" stroke-width="1.51"/><path d="M1575,314L1433,434L1595,373Z" fill="#6ec5ed" stroke="#6ec5ed" stroke-width="1.51"/><path d="M196,916L167,1011L281,1000Z" fill="#73b4ef" stroke="#73b4ef" stroke-width="1.51"/><path d="M122,742L98,815L206,805Z" fill="#4ca4fd" stroke="#4ca4fd" stroke-width="1.51"/><path d="M39,746L122,742L112,561Z" fill="#4498ff" stroke="#4498ff" stroke-width="1.51"/><path d="M1487,255L1443,161L1399,257Z" fill="#65baf2" stroke="#65baf2" stroke-width="1.51"/><path d="M154,116L125,214L202,260Z" fill="#387cff" stroke="#387cff" stroke-width="1.51"/><path d="M137,386L40,433L157,481Z" fill="#3b85ff" stroke="#3b85ff" stroke-width="1.51"/><path d="M421,-120L391,-89L469,19Z" fill="#456fff" stroke="#456fff" stroke-width="1.51"/><path d="M238,114L154,116L202,260Z" fill="#357cff" stroke="#357cff" stroke-width="1.51"/><path d="M100,508L-43,494L112,561Z" fill="#4289ff" stroke="#4289ff" stroke-width="1.51"/><path d="M79,256L40,433L137,386Z" fill="#3d7fff" stroke="#3d7fff" stroke-width="1.51"/><path d="M537,-117L421,-120L543,-15Z" fill="#4770ff" stroke="#4770ff" stroke-width="1.51"/><path d="M742,-134L421,-120L537,-117Z" fill="#4a6eff" stroke="#4a6eff" stroke-width="1.51"/><path d="M98,815L104,885L206,805Z" fill="#5aa6f9" stroke="#5aa6f9" stroke-width="1.51"/><path d="M-19,794L104,885L98,815Z" fill="#5ea1fa" stroke="#5ea1fa" stroke-width="1.51"/><path d="M1485,101L1402,68L1443,161Z" fill="#6bb1f2" stroke="#6bb1f2" stroke-width="1.51"/><path d="M1443,161L1402,68L1331,161Z" fill="#62b1f5" stroke="#62b1f5" stroke-width="1.51"/><path d="M125,214L79,256L202,260Z" fill="#3a7cff" stroke="#3a7cff" stroke-width="1.51"/><path d="M284,-35L238,114L349,30Z" fill="#3c75ff" stroke="#3c75ff" stroke-width="1.51"/><path d="M284,-35L349,30L391,-89Z" fill="#426fff" stroke="#426fff" stroke-width="1.51"/><path d="M89,156L79,256L125,214Z" fill="#3c77ff" stroke="#3c77ff" stroke-width="1.51"/><path d="M1540,573L1576,504L1515,501Z" fill="#6cd1ec" stroke="#6cd1ec" stroke-width="1.51"/><path d="M1664,525L1576,504L1540,573Z" fill="#73d4ea" stroke="#73d4ea" stroke-width="1.51"/><path d="M224,-121L284,-35L391,-89Z" fill="#4668ff" stroke="#4668ff" stroke-width="1.51"/><path d="M1402,68L1387,38L1292,59Z" fill="#64a8f6" stroke="#64a8f6" stroke-width="1.51"/><path d="M1437,921L1532,869L1485,805Z" fill="#75e9e6" stroke="#75e9e6" stroke-width="1.51"/><path d="M1206,1077L1381,1070L1333,973Z" fill="#7fede1" stroke="#7fede1" stroke-width="1.51"/><path d="M1310,1143L1381,1070L1206,1077Z" fill="#80ede0" stroke="#80ede0" stroke-width="1.51"/><path d="M1381,1070L1432,1007L1333,973Z" fill="#83efdf" stroke="#83efdf" stroke-width="1.51"/><path d="M1485,805L1591,735L1523,688Z" fill="#67e3ec" stroke="#67e3ec" stroke-width="1.51"/><path d="M1523,688L1591,735L1540,573Z" fill="#6bddec" stroke="#6bddec" stroke-width="1.51"/><path d="M104,885L167,1011L196,916Z" fill="#6faef2" stroke="#6faef2" stroke-width="1.51"/><path d="M947,1128L1310,1143L1082,1083Z" fill="#74e5e7" stroke="#74e5e7" stroke-width="1.51"/><path d="M867,1137L1310,1143L947,1128Z" fill="#74e0e7" stroke="#74e0e7" stroke-width="1.51"/><path d="M-72,638L39,746L112,561Z" fill="#4891ff" stroke="#4891ff" stroke-width="1.51"/><path d="M333,1086L273,1140L441,1090Z" fill="#7cbfe8" stroke="#7cbfe8" stroke-width="1.51"/><path d="M867,1137L273,1140L1310,1143Z" fill="#76d4e8" stroke="#76d4e8" stroke-width="1.51"/><path d="M199,1085L333,1086L281,1000Z" fill="#7dbce9" stroke="#7dbce9" stroke-width="1.51"/><path d="M1585,993L1532,869L1437,921Z" fill="#83eedf" stroke="#83eedf" stroke-width="1.51"/><path d="M167,1011L199,1085L281,1000Z" fill="#7db8eb" stroke="#7db8eb" stroke-width="1.51"/><path d="M70,1111L199,1085L167,1011Z" fill="#84b4e9" stroke="#84b4e9" stroke-width="1.51"/><path d="M154,116L103,137L125,214Z" fill="#3a77ff" stroke="#3a77ff" stroke-width="1.51"/><path d="M-80,378L-43,494L40,433Z" fill="#447bff" stroke="#447bff" stroke-width="1.51"/><path d="M36,-23L103,137L154,116Z" fill="#426cff" stroke="#426cff" stroke-width="1.51"/><path d="M1595,373L1433,434L1515,501Z" fill="#6ac8ee" stroke="#6ac8ee" stroke-width="1.51"/><path d="M1568,125L1485,101L1443,161Z" fill="#70b5ef" stroke="#70b5ef" stroke-width="1.51"/><path d="M1402,68L1472,-49L1387,38Z" fill="#70a6f4" stroke="#70a6f4" stroke-width="1.51"/><path d="M103,137L89,156L125,214Z" fill="#3c75ff" stroke="#3c75ff" stroke-width="1.51"/><path d="M1599,783L1591,735L1485,805Z" fill="#6fe7e9" stroke="#6fe7e9" stroke-width="1.51"/><path d="M1576,504L1595,373L1515,501Z" fill="#6fcceb" stroke="#6fcceb" stroke-width="1.51"/><path d="M1647,391L1595,373L1576,504Z" fill="#76cbe9" stroke="#76cbe9" stroke-width="1.51"/><path d="M1568,125L1443,161L1487,255Z" fill="#6eb9ef" stroke="#6eb9ef" stroke-width="1.51"/><path d="M1664,525L1647,391L1576,504Z" fill="#77d0e8" stroke="#77d0e8" stroke-width="1.51"/><path d="M1532,869L1599,783L1485,805Z" fill="#74e8e7" stroke="#74e8e7" stroke-width="1.51"/><path d="M1638,855L1599,783L1532,869Z" fill="#7cece2" stroke="#7cece2" stroke-width="1.51"/><path d="M40,433L-43,494L100,508Z" fill="#4283ff" stroke="#4283ff" stroke-width="1.51"/><path d="M-19,278L40,433L79,256Z" fill="#4079ff" stroke="#4079ff" stroke-width="1.51"/><path d="M1213,-68L1300,-133L1118,-89Z" fill="#5a92fe" stroke="#5a92fe" stroke-width="1.51"/><path d="M1118,-89L1300,-133L994,-103Z" fill="#548eff" stroke="#548eff" stroke-width="1.51"/><path d="M1343,-115L1213,-68L1270,33Z" fill="#619afb" stroke="#619afb" stroke-width="1.51"/><path d="M1343,-115L1270,33L1387,38Z" fill="#669ff8" stroke="#669ff8" stroke-width="1.51"/><path d="M39,746L-19,794L98,815Z" fill="#549dfd" stroke="#549dfd" stroke-width="1.51"/><path d="M104,885L32,973L167,1011Z" fill="#75abf0" stroke="#75abf0" stroke-width="1.51"/><path d="M-68,721L-19,794L39,746Z" fill="#4e97ff" stroke="#4e97ff" stroke-width="1.51"/><path d="M1472,-49L1343,-115L1387,38Z" fill="#729ff5" stroke="#729ff5" stroke-width="1.51"/><path d="M-7,163L79,256L89,156Z" fill="#3f73ff" stroke="#3f73ff" stroke-width="1.51"/><path d="M-7,163L-19,278L79,256Z" fill="#4273ff" stroke="#4273ff" stroke-width="1.51"/><path d="M1575,314L1602,210L1487,255Z" fill="#73c0ec" stroke="#73c0ec" stroke-width="1.51"/><path d="M1595,373L1643,333L1575,314Z" fill="#77c7ea" stroke="#77c7ea" stroke-width="1.51"/><path d="M1664,525L1540,573L1706,574Z" fill="#76d7e8" stroke="#76d7e8" stroke-width="1.51"/><path d="M1706,574L1540,573L1591,735Z" fill="#73dde8" stroke="#73dde8" stroke-width="1.51"/><path d="M103,137L-7,163L89,156Z" fill="#3e72ff" stroke="#3e72ff" stroke-width="1.51"/><path d="M284,-35L161,-37L238,114Z" fill="#406eff" stroke="#406eff" stroke-width="1.51"/><path d="M224,-121L161,-37L284,-35Z" fill="#4766ff" stroke="#4766ff" stroke-width="1.51"/><path d="M1706,574L1643,333L1647,391Z" fill="#77cde8" stroke="#77cde8" stroke-width="1.51"/><path d="M1647,391L1643,333L1595,373Z" fill="#79c9e8" stroke="#79c9e8" stroke-width="1.51"/><path d="M1485,101L1472,-49L1402,68Z" fill="#72aaf2" stroke="#72aaf2" stroke-width="1.51"/><path d="M1643,333L1602,210L1575,314Z" fill="#79c4e9" stroke="#79c4e9" stroke-width="1.51"/><path d="M-103,601L-72,638L-43,494Z" fill="#4d84ff" stroke="#4d84ff" stroke-width="1.51"/><path d="M-43,494L-72,638L112,561Z" fill="#4888ff" stroke="#4888ff" stroke-width="1.51"/><path d="M-38,928L104,885L-19,794Z" fill="#6aa0f7" stroke="#6aa0f7" stroke-width="1.51"/><path d="M-38,928L32,973L104,885Z" fill="#74a4f3" stroke="#74a4f3" stroke-width="1.51"/><path d="M199,1085L70,1111L273,1140Z" fill="#82b7e9" stroke="#82b7e9" stroke-width="1.51"/><path d="M1602,210L1568,125L1487,255Z" fill="#74bcec" stroke="#74bcec" stroke-width="1.51"/><path d="M1432,1007L1585,993L1437,921Z" fill="#86f0dd" stroke="#86f0dd" stroke-width="1.51"/><path d="M1381,1070L1501,1082L1432,1007Z" fill="#8df3d9" stroke="#8df3d9" stroke-width="1.51"/><path d="M1310,1143L1501,1082L1381,1070Z" fill="#8af2db" stroke="#8af2db" stroke-width="1.51"/><path d="M421,-120L224,-121L391,-89Z" fill="#4867ff" stroke="#4867ff" stroke-width="1.51"/><path d="M178,-134L224,-121L421,-120Z" fill="#4962ff" stroke="#4962ff" stroke-width="1.51"/><path d="M-72,638L-68,721L39,746Z" fill="#4e91ff" stroke="#4e91ff" stroke-width="1.51"/><path d="M1585,993L1638,855L1532,869Z" fill="#86f0dd" stroke="#86f0dd" stroke-width="1.51"/><path d="M1687,743L1706,574L1591,735Z" fill="#74e2e7" stroke="#74e2e7" stroke-width="1.51"/><path d="M-16,25L-7,163L103,137Z" fill="#446aff" stroke="#446aff" stroke-width="1.51"/><path d="M-19,278L-80,378L40,433Z" fill="#4478ff" stroke="#4478ff" stroke-width="1.51"/><path d="M36,-23L154,116L161,-37Z" fill="#4567ff" stroke="#4567ff" stroke-width="1.51"/><path d="M-93,386L-80,378L-169,309Z" fill="#4971ff" stroke="#4971ff" stroke-width="1.51"/><path d="M1564,-63L1472,-49L1485,101Z" fill="#7ca7ef" stroke="#7ca7ef" stroke-width="1.51"/><path d="M1501,1082L1541,1063L1432,1007Z" fill="#92f5d6" stroke="#92f5d6" stroke-width="1.51"/><path d="M1541,1063L1585,993L1432,1007Z" fill="#90f5d7" stroke="#90f5d7" stroke-width="1.51"/><path d="M-72,638L-145,656L-68,721Z" fill="#518aff" stroke="#518aff" stroke-width="1.51"/><path d="M-146,519L-103,601L-43,494Z" fill="#4c7fff" stroke="#4c7fff" stroke-width="1.51"/><path d="M1564,-63L1478,-69L1472,-49Z" fill="#7fa1f0" stroke="#7fa1f0" stroke-width="1.51"/><path d="M1602,210L1634,201L1568,125Z" fill="#7abeea" stroke="#7abeea" stroke-width="1.51"/><path d="M1643,333L1634,201L1602,210Z" fill="#7cc2e8" stroke="#7cc2e8" stroke-width="1.51"/><path d="M1675,-13L1634,201L1643,333Z" fill="#7dbee9" stroke="#7dbee9" stroke-width="1.51"/><path d="M-80,378L-93,386L-43,494Z" fill="#4778ff" stroke="#4778ff" stroke-width="1.51"/><path d="M-169,309L-80,378L-19,278Z" fill="#4771ff" stroke="#4771ff" stroke-width="1.51"/><path d="M1687,743L1591,735L1599,783Z" fill="#73e8e7" stroke="#73e8e7" stroke-width="1.51"/><path d="M1664,525L1706,574L1647,391Z" fill="#77d2e8" stroke="#77d2e8" stroke-width="1.51"/><path d="M1695,811L1599,783L1638,855Z" fill="#7dece2" stroke="#7dece2" stroke-width="1.51"/><path d="M1695,811L1687,743L1599,783Z" fill="#77eae5" stroke="#77eae5" stroke-width="1.51"/><path d="M-145,656L-90,774L-68,721Z" fill="#538eff" stroke="#538eff" stroke-width="1.51"/><path d="M-68,721L-90,774L-19,794Z" fill="#5494ff" stroke="#5494ff" stroke-width="1.51"/><path d="M9,1036L70,1111L167,1011Z" fill="#87afe9" stroke="#87afe9" stroke-width="1.51"/><path d="M-90,774L-38,928L-19,794Z" fill="#6499fa" stroke="#6499fa" stroke-width="1.51"/><path d="M1564,-63L1485,101L1568,125Z" fill="#7bafed" stroke="#7bafed" stroke-width="1.51"/><path d="M1472,-49L1478,-69L1343,-115Z" fill="#799df3" stroke="#799df3" stroke-width="1.51"/><path d="M1343,-115L1697,-113L1300,-133Z" fill="#7d99f3" stroke="#7d99f3" stroke-width="1.51"/><path d="M9,1036L167,1011L32,973Z" fill="#80aced" stroke="#80aced" stroke-width="1.51"/><path d="M224,-121L178,-134L161,-37Z" fill="#4a5fff" stroke="#4a5fff" stroke-width="1.51"/><path d="M88,-148L178,-134L421,-120Z" fill="#4a5eff" stroke="#4a5eff" stroke-width="1.51"/><path d="M-38,928L9,1036L32,973Z" fill="#7fa5ef" stroke="#7fa5ef" stroke-width="1.51"/><path d="M1687,743L1695,811L1706,574Z" fill="#74e5e7" stroke="#74e5e7" stroke-width="1.51"/><path d="M1648,1046L1695,811L1638,855Z" fill="#8af2db" stroke="#8af2db" stroke-width="1.51"/><path d="M1634,201L1631,105L1568,125Z" fill="#7cbbea" stroke="#7cbbea" stroke-width="1.51"/><path d="M1675,-13L1631,105L1634,201Z" fill="#82b7e9" stroke="#82b7e9" stroke-width="1.51"/><path d="M-93,386L-146,519L-43,494Z" fill="#4979ff" stroke="#4979ff" stroke-width="1.51"/><path d="M-103,601L-145,656L-72,638Z" fill="#5086ff" stroke="#5086ff" stroke-width="1.51"/><path d="M-169,309L-146,519L-93,386Z" fill="#4a72ff" stroke="#4a72ff" stroke-width="1.51"/><path d="M-128,942L-103,972L-38,928Z" fill="#7d9df2" stroke="#7d9df2" stroke-width="1.51"/><path d="M-146,519L-145,656L-103,601Z" fill="#5081ff" stroke="#5081ff" stroke-width="1.51"/><path d="M-7,163L-130,230L-19,278Z" fill="#456eff" stroke="#456eff" stroke-width="1.51"/><path d="M88,-148L36,-23L161,-37Z" fill="#4b5bff" stroke="#4b5bff" stroke-width="1.51"/><path d="M36,-23L-16,25L103,137Z" fill="#4764ff" stroke="#4764ff" stroke-width="1.51"/><path d="M1623,-39L1564,-63L1568,125Z" fill="#84aceb" stroke="#84aceb" stroke-width="1.51"/><path d="M1478,-69L1697,-113L1343,-115Z" fill="#829df0" stroke="#829df0" stroke-width="1.51"/><path d="M-120,86L-130,230L-7,163Z" fill="#4666ff" stroke="#4666ff" stroke-width="1.51"/><path d="M1585,993L1648,1046L1638,855Z" fill="#92f6d6" stroke="#92f6d6" stroke-width="1.51"/><path d="M1541,1063L1648,1046L1585,993Z" fill="#98f9d2" stroke="#98f9d2" stroke-width="1.51"/><path d="M1640,1090L1648,1046L1541,1063Z" fill="#9cfbcf" stroke="#9cfbcf" stroke-width="1.51"/><path d="M1640,1090L1541,1063L1501,1082Z" fill="#98f9d2" stroke="#98f9d2" stroke-width="1.51"/><path d="M-38,928L-103,972L9,1036Z" fill="#80a2ef" stroke="#80a2ef" stroke-width="1.51"/><path d="M9,1036L-51,1072L70,1111Z" fill="#8aaae9" stroke="#8aaae9" stroke-width="1.51"/><path d="M-128,942L-38,928L-90,774Z" fill="#7199f7" stroke="#7199f7" stroke-width="1.51"/><path d="M1300,-133L88,-148L742,-134Z" fill="#4c72ff" stroke="#4c72ff" stroke-width="1.51"/><path d="M742,-134L88,-148L421,-120Z" fill="#4a66ff" stroke="#4a66ff" stroke-width="1.51"/><path d="M178,-134L88,-148L161,-37Z" fill="#4c5aff" stroke="#4c5aff" stroke-width="1.51"/><path d="M-137,-42L-83,55L-16,25Z" fill="#4d56ff" stroke="#4d56ff" stroke-width="1.51"/><path d="M-146,519L-169,309L-145,656Z" fill="#4d77ff" stroke="#4d77ff" stroke-width="1.51"/><path d="M-130,230L-169,309L-19,278Z" fill="#486cff" stroke="#486cff" stroke-width="1.51"/><path d="M-103,972L-51,1072L9,1036Z" fill="#88a4ec" stroke="#88a4ec" stroke-width="1.51"/><path d="M1648,1046L1640,1090L1695,811Z" fill="#94f7d4" stroke="#94f7d4" stroke-width="1.51"/><path d="M1310,1143L1640,1090L1501,1082Z" fill="#91f5d6" stroke="#91f5d6" stroke-width="1.51"/><path d="M-103,972L-152,1076L-51,1072Z" fill="#8da1eb" stroke="#8da1eb" stroke-width="1.51"/><path d="M-145,656L-128,942L-90,774Z" fill="#5f92fd" stroke="#5f92fd" stroke-width="1.51"/><path d="M-152,1076L-128,942L-145,656Z" fill="#7596f6" stroke="#7596f6" stroke-width="1.51"/><path d="M-130,230L-120,86L-169,309Z" fill="#4966ff" stroke="#4966ff" stroke-width="1.51"/><path d="M-16,25L-83,55L-7,163Z" fill="#4863ff" stroke="#4863ff" stroke-width="1.51"/><path d="M-64,-93L-16,25L36,-23Z" fill="#4e57ff" stroke="#4e57ff" stroke-width="1.51"/><path d="M1631,105L1623,-39L1568,125Z" fill="#82b3ea" stroke="#82b3ea" stroke-width="1.51"/><path d="M1675,-13L1623,-39L1631,105Z" fill="#88afe9" stroke="#88afe9" stroke-width="1.51"/><path d="M-137,-42L-120,86L-83,55Z" fill="#4d56ff" stroke="#4d56ff" stroke-width="1.51"/><path d="M-83,55L-120,86L-7,163Z" fill="#4862ff" stroke="#4862ff" stroke-width="1.51"/><path d="M1706,574L1675,-13L1643,333Z" fill="#7bc5e8" stroke="#7bc5e8" stroke-width="1.51"/><path d="M88,-148L-64,-93L36,-23Z" fill="#4e52ff" stroke="#4e52ff" stroke-width="1.51"/><path d="M-128,942L-152,1076L-103,972Z" fill="#879dee" stroke="#879dee" stroke-width="1.51"/><path d="M-51,1072L-152,1076L70,1111Z" fill="#8ca6e9" stroke="#8ca6e9" stroke-width="1.51"/><path d="M-169,309L-152,1076L-145,656Z" fill="#5587ff" stroke="#5587ff" stroke-width="1.51"/><path d="M-64,-93L-137,-42L-16,25Z" fill="#4f51ff" stroke="#4f51ff" stroke-width="1.51"/><path d="M-120,86L-137,-42L-169,309Z" fill="#4a5eff" stroke="#4a5eff" stroke-width="1.51"/><path d="M1675,-13L1697,-113L1623,-39Z" fill="#8ca7e9" stroke="#8ca7e9" stroke-width="1.51"/><path d="M1623,-39L1697,-113L1564,-63Z" fill="#8da5ea" stroke="#8da5ea" stroke-width="1.51"/><path d="M1564,-63L1697,-113L1478,-69Z" fill="#89a2ec" stroke="#89a2ec" stroke-width="1.51"/><path d="M1706,574L1697,-113L1675,-13Z" fill="#7dbce9" stroke="#7dbce9" stroke-width="1.51"/><path d="M-64,-93L-112,-122L-137,-42Z" fill="#5247ff" stroke="#5247ff" stroke-width="1.51"/><path d="M88,-148L-112,-122L-64,-93Z" fill="#5149ff" stroke="#5149ff" stroke-width="1.51"/></svg>